<svg width="500" height="500" viewBox="0 0 500 500" fill="none" xmlns="http://www.w3.org/2000/svg">
<path d="M251.063 170.624C208.885 170.624 178.113 178.715 158.749 194.896C139.384 211.078 129.701 236.014 129.701 269.703C129.701 303.393 139.649 328.063 159.544 343.714C179.174 359.365 209.415 367.19 250.267 367.19H299.608V448.761L346.363 452.741L346.561 170.624H251.063ZM245.094 324.614C219.098 324.614 201.457 319.707 192.173 309.892C182.623 299.811 177.848 285.221 177.848 266.122C177.848 246.757 183.817 233.096 195.754 225.137C207.691 217.179 226.393 213.2 251.859 213.2H299.608V324.614H245.094Z" fill="#055D59"/>
<path d="M275.734 23C306.24 23 333.265 27.6423 356.808 36.9268C380.35 45.8797 400.081 58.3142 415.997 74.2305C432.245 90.1467 444.513 109.048 452.803 130.933C461.092 152.486 465.237 176.028 465.237 201.561C465.237 226.098 461.922 248.647 455.29 269.205C448.658 289.432 439.539 306.841 427.934 321.431C416.66 336.02 403.065 347.46 387.148 355.75C371.564 363.708 354.818 367.688 336.912 367.688C328.291 367.687 320.665 367.19 314.033 366.195C311.607 365.71 309.38 365.202 307.354 364.672C317.547 356.196 326.641 345.932 334.326 334.254C336.719 336.315 340.399 337.347 345.368 337.347C356.642 337.347 366.922 333.699 376.206 326.404C385.822 319.109 394.112 309.327 401.075 297.059C408.038 284.458 413.51 270.2 417.489 254.284C421.468 238.036 423.457 221.125 423.457 203.551C423.457 182.661 420.142 163.262 413.51 145.356C407.21 127.451 397.76 112.032 385.159 99.0996C372.89 85.836 357.637 75.3912 339.399 67.7646C321.494 60.1381 300.935 56.3252 277.724 56.3252C249.87 56.3252 223.674 61.1329 199.137 70.749C174.599 80.0335 153.212 94.126 134.975 113.026C116.737 131.595 102.313 154.973 91.7021 183.158C81.0913 211.012 75.7852 243.508 75.7852 280.646C75.7852 310.82 80.5939 336.187 90.21 356.745C100.158 377.304 112.924 393.883 128.509 406.483C144.425 419.084 162.165 428.036 181.729 433.342C201.624 438.979 221.353 441.798 240.917 441.798C262.139 441.798 280.21 439.808 295.132 435.829C310.053 432.182 324.147 427.705 337.41 422.399L346.362 453.237C332.436 459.206 315.691 464.512 296.127 469.154C276.895 473.797 255.839 476.117 232.959 476.117C208.421 476.117 184.215 472.635 160.341 465.672C136.798 458.708 115.742 447.434 97.1729 431.85C78.604 416.597 63.5167 396.701 51.9111 372.164C40.6371 347.958 35 318.28 35 283.132C35 239.694 41.9639 201.727 55.8906 169.231C69.8174 136.736 88.0544 109.711 110.603 88.1572C133.482 66.2724 159.181 50.0249 187.697 39.4141C216.546 28.4716 245.891 23 275.734 23Z" fill="#055D59"/>
</svg>
