<svg width="66" height="66" viewBox="0 0 66 66" fill="none" xmlns="http://www.w3.org/2000/svg">
<circle cx="33" cy="33" r="33" fill="#D9D9D9"/>
<path d="M33.4211 24.0022C28.849 24.0022 25.5134 24.8792 23.4143 26.6333C21.3152 28.3873 20.2656 31.0903 20.2656 34.7422C20.2656 38.3941 21.3439 41.0683 23.5006 42.7649C25.6285 44.4614 28.9065 45.3097 33.3348 45.3097H38.6833V54.1519L43.7515 54.5832L43.7729 24.0022H33.4211ZM32.7741 40.6945C29.9561 40.6945 28.0439 40.1625 27.0375 39.0986C26.0023 38.0059 25.4847 36.4244 25.4847 34.354C25.4847 32.2549 26.1317 30.774 27.4257 29.9114C28.7196 29.0487 30.7469 28.6174 33.5074 28.6174H38.6833V40.6945H32.7741Z" fill="#055D59"/>
<path d="M36.0947 8C39.4016 8 42.3318 8.50334 44.8838 9.50977C47.4357 10.4802 49.5746 11.8285 51.2998 13.5537C53.0608 15.2788 54.3905 17.3273 55.2891 19.6992C56.1876 22.0355 56.6367 24.5879 56.6367 27.3555C56.6367 30.0153 56.2775 32.46 55.5586 34.6885C54.8397 36.8809 53.8517 38.7682 52.5938 40.3496C51.3717 41.9311 49.8972 43.1707 48.1719 44.0693C46.4826 44.9319 44.6674 45.3633 42.7266 45.3633C41.7923 45.3633 40.9658 45.3099 40.2471 45.2021C39.9845 45.1496 39.7438 45.0915 39.5244 45.0342C40.6287 44.1156 41.6136 43.0037 42.4463 41.7383C42.7056 41.9621 43.1044 42.0752 43.6436 42.0752C44.8656 42.0752 45.9799 41.6794 46.9863 40.8887C48.0286 40.098 48.9269 39.0377 49.6816 37.708C50.4365 36.3421 51.0296 34.7956 51.4609 33.0703C51.8922 31.3092 52.1084 29.4762 52.1084 27.5713C52.1084 25.3071 51.749 23.2045 51.0303 21.2637C50.3474 19.3228 49.3228 17.6508 47.957 16.249C46.6271 14.8113 44.973 13.6792 42.9961 12.8525C41.0552 12.0259 38.8265 11.6123 36.3105 11.6123C33.2914 11.6123 30.4518 12.1334 27.792 13.1758C25.1322 14.1822 22.8138 15.71 20.8369 17.7588C18.86 19.7716 17.2967 22.3061 16.1465 25.3613C14.9964 28.3805 14.4209 31.9032 14.4209 35.9287C14.4209 39.1994 14.942 41.9493 15.9844 44.1777C17.0627 46.4061 18.4464 48.2035 20.1357 49.5693C21.8611 50.9352 23.7846 51.9054 25.9053 52.4805C28.0618 53.0915 30.2007 53.3975 32.3213 53.3975C34.6216 53.3974 36.5808 53.1813 38.1982 52.75C39.8155 52.3547 41.3427 51.869 42.7803 51.2939L43.751 54.6367C42.2414 55.2837 40.4263 55.8591 38.3057 56.3623C36.2209 56.8655 33.9381 57.1172 31.458 57.1172C28.7984 57.1171 26.1746 56.7401 23.5869 55.9854C21.0349 55.2305 18.7521 54.0077 16.7393 52.3184C14.7265 50.665 13.091 48.5084 11.833 45.8486C10.611 43.2248 10 40.0081 10 36.1982C10 31.4897 10.7551 27.374 12.2646 23.8516C13.7743 20.3291 15.7511 17.3988 18.1953 15.0625C20.6753 12.6904 23.4608 10.9294 26.5518 9.7793C29.6787 8.59321 32.8599 8.00005 36.0947 8Z" fill="#055D59"/>
</svg>
