<svg width="218" height="33" viewBox="0 0 218 33" fill="none" xmlns="http://www.w3.org/2000/svg">
<path d="M21.1944 18.0272V5.98911H6.05556V18.0272H21.1944ZM6.05556 24.0163V33H0V0H21.1944C25.1104 0.15971 27.1289 2.16606 27.25 6.01906V18.0572C27.0885 21.8702 25.07 23.8566 21.1944 24.0163H6.05556Z" fill="#055D59"/>
<path d="M54.5 18.0272V5.98911H39.3611V18.0272H54.5ZM39.3611 24.0163V33H33.3056V0H54.4394C58.3352 0.179673 60.3739 2.19601 60.5556 6.049V17.9673C60.3739 21.7604 58.3554 23.7768 54.5 24.0163L60.6161 33H53.955L47.8389 24.0163H39.3611Z" fill="#055D59"/>
<path d="M87.8056 17.9074V6.049H72.6667V17.9074H87.8056ZM72.6667 23.8966V33H66.6111V6.049C66.7524 2.19601 68.7608 0.199637 72.6364 0.0598911H87.8056C91.7013 0.15971 93.7198 2.16606 93.8611 6.07895V33H87.8056V23.8966H72.6667Z" fill="#055D59"/>
<path d="M105.972 12.9964H121.111V5.98911H105.972V12.9964ZM99.9167 33V0H121.051C125.027 0.139746 127.066 2.12613 127.167 5.95917V10.99C127.086 13.2459 125.956 14.9229 123.776 16.0209C125.956 17.1189 127.086 18.7858 127.167 21.0218V27.0109C127.066 30.804 125.078 32.8004 121.202 33H99.9167ZM121.111 27.0109V18.9855H105.972V27.0109H121.111Z" fill="#055D59"/>
<path d="M133.222 0.119782H139.278V33H133.222V0.119782Z" fill="#055D59"/>
<path d="M145.333 0H166.498C170.393 0.199637 172.422 2.18603 172.583 5.95917V27.0109C172.482 30.8639 170.464 32.8603 166.528 33H145.333V0ZM166.528 5.98911H151.389V27.0109H166.528V5.98911Z" fill="#055D59"/>
<path d="M184.694 0V13.5953H199.833V0H205.889V33H199.833V19.5844H184.694V33H178.639V0H184.694Z" fill="#055D59"/>
<path d="M211.944 0.119782H218V33H211.944V0.119782Z" fill="#055D59"/>
</svg>
