<svg width="164" height="50" viewBox="0 0 164 50" fill="none" xmlns="http://www.w3.org/2000/svg">
<path d="M64.0584 13.6918V17.1035H53.9361V21.4363H62.3714C64.5196 21.5386 65.6443 22.6645 65.7455 24.8139V29.0273C65.6443 31.2108 64.5083 32.365 62.3376 32.4901H50.5619V29.0785H62.3714V24.848H53.9361C51.7766 24.6888 50.6519 23.5459 50.5619 21.4192V17.0864C50.6519 14.9257 51.7766 13.7941 53.9361 13.6918H64.0584Z" fill="#0D5D59"/>
<path d="M84.3842 23.9609V17.1035H75.9488V23.9609H84.3842ZM75.9488 27.3726V32.4901H72.5747V13.6918H84.3504C86.5211 13.7941 87.6571 14.9427 87.7583 17.1376V23.9268C87.6571 26.0876 86.5323 27.2362 84.3842 27.3726L87.792 32.4901H84.0805L80.6726 27.3726H75.9488Z" fill="#0D5D59"/>
<path d="M94.5875 13.76H97.9616V32.4901H94.5875V13.76Z" fill="#0D5D59"/>
<path d="M104.791 13.7259H108.165V22.2551H116.6V13.7259H119.974V22.2892C119.896 24.4386 118.765 25.5644 116.583 25.6668H114.07V32.4901H110.712V25.6668H108.199C105.994 25.5644 104.858 24.4329 104.791 22.2722V13.7259Z" fill="#0D5D59"/>
<path d="M138.613 29.0785V17.1035H130.178V29.0785H138.613ZM126.804 17.0864C126.894 14.9029 128.018 13.7714 130.178 13.6918H138.596C140.733 13.7714 141.863 14.9029 141.987 17.0864V29.0785C141.931 31.2847 140.806 32.4219 138.613 32.4901H130.178C127.973 32.4219 126.849 31.2847 126.804 29.0785V17.0864Z" fill="#0D5D59"/>
<path d="M148.816 17.1205C148.895 14.9143 150.02 13.7714 152.191 13.6918H160.66C162.83 13.7714 163.944 14.9143 164 17.1205V18.8093H160.626V17.1035H152.191V29.0785H160.626V24.848H156.442V21.4363H164V29.0785C163.888 31.2278 162.774 32.365 160.66 32.4901H152.191C150.042 32.3764 148.918 31.2449 148.816 29.0955V17.1205Z" fill="#0D5D59"/>
<path d="M41.4291 26.825C38.4171 38.1907 26.8632 44.9357 15.6226 41.8902C4.38197 38.8448 -2.28871 27.1622 0.723203 15.7965C3.73512 4.43075 15.2891 -2.31418 26.5297 0.731263C37.7703 3.7767 44.441 15.4593 41.4291 26.825Z" fill="#0D5D59"/>
<path fill-rule="evenodd" clip-rule="evenodd" d="M24.6591 22.8667C25.8337 21.3387 26.6537 19.4556 27.119 17.2175L30.5885 24.7383C28.3749 28.9378 24.8905 33.0634 20.1355 37.115L14.4603 34.7222C17.0293 32.9389 19.7425 30.0564 22.5998 26.0745L17.1746 24.943C15.8152 26.9509 13.9398 28.8792 11.5484 30.7277L5.97409 28.4737C8.2578 26.9244 10.1332 25.1825 11.6002 23.2481C8.6791 22.1904 6.79016 20.7329 5.93334 18.8756C5.09671 17.0088 5.04521 15.219 5.77884 13.5062C6.53266 11.7838 7.72707 10.5371 9.36208 9.76595C11.0173 8.98528 12.8823 8.92574 14.957 9.58733C17.0224 10.2285 18.6779 11.6594 19.9235 13.8801C21.1691 16.1007 20.9594 18.7095 19.2945 21.7066L24.6591 22.8667ZM11.821 18.3726C12.2353 19.2706 12.8858 19.9082 13.7724 20.2852C14.7509 18.7302 15.3237 17.2548 15.4908 15.8589C15.6781 14.4535 15.3829 13.5738 14.6052 13.22C13.8477 12.8566 13.0907 13.4 12.3343 14.8502C11.5684 16.28 11.3973 17.4541 11.821 18.3726Z" fill="white"/>
<path d="M22.733 13.5206L28.5205 10.791L36.8637 28.8763L31.0762 31.606L22.733 13.5206ZM19.6991 6.94416L25.4867 4.21448L27.7621 9.14684L21.9745 11.8765L19.6991 6.94416Z" fill="white"/>
<path d="M87.592 44.9379L87.113 44.9175C87.0722 44.9175 87.0247 44.9209 86.9703 44.9277C86.9159 44.9345 86.8548 44.9379 86.7868 44.9379C86.5898 44.9379 86.3927 44.8971 86.1957 44.8155C85.6453 44.5234 85.2818 44.1021 85.1051 43.5517C85.0304 43.3139 84.993 43.0659 84.993 42.8077C84.993 42.4544 85.061 42.0739 85.1969 41.6662C85.7065 40.1238 86.5422 38.9857 87.7041 38.2518L87.7551 38.2213C87.9453 38.0922 88.1152 38.0276 88.2647 38.0276C88.4006 38.0276 88.5195 38.1465 88.6214 38.3843C88.6962 38.5678 88.7335 38.7445 88.7335 38.9143C88.7335 39.2269 88.601 39.5021 88.336 39.7399C87.9623 40.0321 87.6158 40.3616 87.2964 40.7285C86.9839 41.0886 86.7189 41.5167 86.5015 42.0127C86.3859 42.2573 86.3282 42.4612 86.3282 42.6242C86.3282 42.9436 86.5354 43.1271 86.9499 43.1746C87.2761 43.229 87.5988 43.2562 87.9182 43.2562C88.2647 43.2562 88.6078 43.2256 88.9476 43.1644C89.3688 43.0829 89.7935 43.0183 90.2216 42.9708C90.2827 42.9572 90.3473 42.9266 90.4152 42.8791C90.4832 42.8247 90.5511 42.7975 90.6191 42.7975C90.6802 42.7975 90.7346 42.8519 90.7821 42.9606C90.7957 43.0014 90.8025 43.0421 90.8025 43.0829C90.8025 43.1305 90.7889 43.1848 90.7618 43.246C90.7346 43.3003 90.6938 43.3649 90.6394 43.4396C90.5851 43.5076 90.5409 43.5823 90.5069 43.6638C90.4322 43.8337 90.3371 43.956 90.2216 44.0308C90.1129 44.0987 89.9973 44.1531 89.875 44.1938C89.7595 44.2278 89.6508 44.2754 89.5489 44.3365C89.3586 44.4316 89.1684 44.4792 88.9781 44.4792C88.8694 44.4792 88.7675 44.4894 88.6724 44.5098C88.5772 44.5302 88.4889 44.5777 88.4074 44.6525C88.2375 44.802 88.0676 44.8903 87.8978 44.9175C87.8026 44.9311 87.7007 44.9379 87.592 44.9379Z" fill="#0D5D59"/>
<path d="M96.0178 43.6027C96.1809 43.5891 96.3576 43.5178 96.5478 43.3887C96.7449 43.2528 96.9113 43.0999 97.0472 42.93C97.1899 42.7533 97.2647 42.5937 97.2715 42.451L97.2205 42.0637C97.1797 41.7647 97.1186 41.4793 97.0371 41.2075C97.0371 41.1736 97.0065 41.092 96.9453 40.9629C96.891 40.8678 96.8162 40.8202 96.7211 40.8202C96.6464 40.8202 96.558 40.8576 96.4561 40.9324C96.1707 41.143 95.9227 41.4691 95.7121 41.9108C95.549 42.2641 95.4675 42.5835 95.4675 42.8689C95.4675 43.3581 95.6509 43.6027 96.0178 43.6027ZM96.0178 44.9379H95.9567C95.6373 44.9379 95.3282 44.8461 95.0292 44.6627C94.737 44.4724 94.54 44.2176 94.4381 43.8983C94.2886 43.3887 94.2138 42.9164 94.2138 42.4816C94.2138 42.1418 94.2852 41.7273 94.4279 41.2381C94.5774 40.7489 95.0326 40.1917 95.7936 39.5666C96.0314 39.3696 96.2659 39.271 96.4969 39.271C96.7347 39.271 96.9657 39.373 97.1899 39.5768C98.0053 40.4126 98.4402 41.2959 98.4945 42.2268C98.4605 42.9538 98.199 43.5721 97.7097 44.0817C97.2273 44.5913 96.6633 44.8767 96.0178 44.9379Z" fill="#0D5D59"/>
<path d="M102.995 44.9379L102.893 44.9277C102.547 44.8189 102.373 44.4894 102.373 43.939C102.373 43.7012 102.39 43.3513 102.424 42.8892L102.435 42.5631C102.435 42.1826 102.397 41.8123 102.323 41.4522C102.255 41.0852 102.214 40.7217 102.2 40.3616C102.207 39.7773 102.414 39.4545 102.822 39.3934L102.924 39.3832C103.27 39.3832 103.471 39.6312 103.525 40.1272C103.546 40.4397 103.62 40.596 103.749 40.596C103.838 40.596 103.953 40.5349 104.096 40.4126C104.606 39.9573 105.034 39.7297 105.38 39.7297C105.441 39.7297 105.581 39.7569 105.798 39.8112C106.015 39.8656 106.318 40.2631 106.705 41.0037C107.133 41.7579 107.347 42.468 107.347 43.1339C107.347 43.5347 107.313 43.8439 107.245 44.0613C107.191 44.2244 107.075 44.3195 106.899 44.3467C106.498 44.3467 106.26 44.0885 106.185 43.5721C106.09 43.0625 105.92 42.5971 105.676 42.1758L105.635 42.1045C105.479 41.7511 105.312 41.5745 105.136 41.5745C104.972 41.5745 104.803 41.7239 104.626 42.0229C104.239 42.6616 103.926 43.3513 103.688 44.0919L103.647 44.1836C103.478 44.6864 103.26 44.9379 102.995 44.9379Z" fill="#0D5D59"/>
<path d="M111.967 44.9379H111.866C111.607 44.9379 111.369 44.8699 111.152 44.734C110.935 44.5641 110.826 44.3671 110.826 44.1429C110.826 44.0138 110.867 43.939 110.948 43.9186C111.037 43.8915 111.125 43.8779 111.213 43.8779H111.366C111.896 43.7963 112.416 43.6808 112.925 43.5313L113.496 43.3785C113.476 43.3173 113.466 43.2596 113.466 43.2052L113.129 43.1237C112.871 43.0761 112.62 43.0149 112.375 42.9402C111.743 42.7024 111.427 42.3321 111.427 41.8293C111.427 41.6254 111.482 41.3944 111.59 41.1362C111.801 40.7149 112.144 40.3616 112.62 40.0762C113.102 39.7908 113.581 39.6482 114.057 39.6482C114.376 39.6482 114.587 39.7807 114.689 40.0456C114.716 40.1408 114.729 40.2291 114.729 40.3106C114.729 40.5485 114.614 40.7421 114.383 40.8916C113.941 41.1498 113.476 41.4012 112.987 41.6458C113.252 41.87 113.537 42.0195 113.843 42.0943C114.047 42.1554 114.237 42.2403 114.414 42.3491C114.658 42.4918 114.855 42.648 115.005 42.8179C115.127 42.9674 115.188 43.161 115.188 43.3988L115.178 43.5415C115.137 43.8337 115.032 44.0579 114.862 44.2142C114.692 44.3637 114.471 44.4792 114.199 44.5607C113.466 44.785 112.722 44.9107 111.967 44.9379Z" fill="#0D5D59"/>
<path d="M120.59 44.9277C120.21 44.9277 119.897 44.7476 119.652 44.3875C119.449 44.0885 119.302 43.7726 119.214 43.4396C119.126 43.1067 119.058 42.7669 119.01 42.4204C118.949 42.0671 118.874 41.7172 118.786 41.3706C118.711 41.1736 118.674 40.9765 118.674 40.7795C118.681 40.7251 118.684 40.6674 118.684 40.6062V40.5145C118.684 40.3922 118.708 40.2699 118.755 40.1476C118.817 39.9981 119.007 39.9233 119.326 39.9233C119.51 39.9233 119.666 39.9607 119.795 40.0355C119.924 40.1102 119.999 40.2971 120.019 40.596C120.067 41.3163 120.162 42.0297 120.305 42.7364L120.325 42.8587C120.393 43.3071 120.556 43.5313 120.814 43.5313C120.964 43.5313 121.144 43.46 121.354 43.3173C122.455 42.6446 123.016 41.6628 123.036 40.3718V40.2189C123.036 40.0355 123.06 39.8724 123.107 39.7297C123.155 39.5802 123.305 39.4987 123.556 39.4851C123.814 39.4919 123.981 39.5836 124.055 39.7603C124.116 39.903 124.147 40.0694 124.147 40.2597V40.4329C124.147 40.4737 124.15 40.5145 124.157 40.5553C124.164 40.5892 124.167 40.6198 124.167 40.647C124.167 41.5711 123.851 42.4476 123.22 43.2765C122.594 44.0987 121.833 44.6355 120.937 44.8869C120.814 44.9141 120.699 44.9277 120.59 44.9277Z" fill="#0D5D59"/>
<path d="M128.926 44.9379C128.81 44.9379 128.712 44.8869 128.63 44.785C128.555 44.6763 128.491 44.5336 128.437 44.3569C128.226 43.7726 128.1 43.1712 128.059 42.5529L128.019 42.2369C127.93 41.4352 127.859 40.6334 127.805 39.8316C127.744 39.1725 127.713 38.7886 127.713 38.6799C127.713 38.0208 127.951 37.6913 128.426 37.6913C128.651 37.6913 128.817 37.7626 128.926 37.9053C129.041 38.0412 129.106 38.2179 129.119 38.4353C129.133 38.6867 129.14 38.9279 129.14 39.1589L129.13 40.0456C129.17 40.5485 129.194 41.0377 129.201 41.5133C129.208 42.3015 129.279 43.0693 129.415 43.8167C129.422 43.8779 129.425 43.9798 129.425 44.1225L129.435 44.2958C129.435 44.4045 129.415 44.5234 129.374 44.6525C129.34 44.7748 129.235 44.8631 129.058 44.9175C129.011 44.9311 128.967 44.9379 128.926 44.9379Z" fill="#0D5D59"/>
<path d="M137.645 44.9379C137.543 44.9379 137.441 44.9243 137.339 44.8971L137.003 44.9073C136.33 44.9073 135.797 44.7306 135.403 44.3773C134.981 43.9968 134.771 43.4736 134.771 42.8077V42.5835C134.771 42.3185 134.699 42.186 134.557 42.186L134.444 42.2064C134.431 42.2064 134.312 42.2437 134.088 42.3185L134.006 42.3491C133.857 42.417 133.711 42.451 133.568 42.451C133.439 42.451 133.313 42.3762 133.191 42.2268C133.075 42.0705 133.018 41.9176 133.018 41.7681C133.018 41.5982 133.069 41.3944 133.17 41.1566C133.225 41.0343 133.296 40.9595 133.385 40.9324C133.48 40.8984 133.582 40.8814 133.69 40.8814L133.843 40.861C134.169 40.8202 134.4 40.7761 134.536 40.7285C134.679 40.6742 134.764 40.5756 134.791 40.4329C134.825 40.2903 134.842 40.0592 134.842 39.7399C134.842 39.6719 134.839 39.6074 134.832 39.5462C134.825 39.4783 134.822 39.4171 134.822 39.3628C134.822 39.1725 134.852 38.9823 134.913 38.792C134.974 38.6018 135.172 38.5032 135.504 38.4965C135.885 38.5168 136.106 38.6595 136.167 38.9245C136.201 39.0672 136.218 39.2201 136.218 39.3832C136.218 39.5123 136.208 39.6448 136.187 39.7807L136.177 39.9947C136.177 40.416 136.371 40.6266 136.758 40.6266C136.826 40.6266 136.901 40.6198 136.982 40.6062C137.125 40.5926 137.264 40.5858 137.4 40.5858C137.726 40.5858 138.049 40.6198 138.368 40.6878C138.477 40.7013 138.582 40.7149 138.684 40.7285C138.793 40.7421 138.892 40.7693 138.98 40.8101C139.068 40.8508 139.112 40.9493 139.112 41.1056C139.112 41.3027 139.011 41.4691 138.807 41.605C138.616 41.707 138.426 41.7681 138.236 41.7885C138.107 41.7953 137.974 41.7987 137.838 41.7987L137.41 41.7885C137.179 41.7885 136.952 41.8191 136.728 41.8802C136.646 41.9006 136.558 41.9108 136.463 41.9108C136.34 41.9108 136.228 41.9346 136.126 41.9821C136.024 42.0297 135.973 42.1962 135.973 42.4816C135.973 42.665 136.004 42.8485 136.065 43.0319C136.126 43.2154 136.293 43.3683 136.564 43.4906C137.013 43.6604 137.468 43.7454 137.93 43.7454C138.195 43.7454 138.46 43.7182 138.725 43.6638C138.773 43.657 138.824 43.6435 138.878 43.6231C138.987 43.5891 139.095 43.5721 139.204 43.5721C139.218 43.5721 139.259 43.5755 139.327 43.5823C139.401 43.5823 139.456 43.674 139.49 43.8575L139.5 43.9492C139.5 44.0851 139.445 44.2108 139.337 44.3263C139.228 44.4418 139.092 44.5234 138.929 44.5709C138.766 44.6117 138.61 44.6627 138.46 44.7238C138.134 44.8665 137.862 44.9379 137.645 44.9379Z" fill="#0D5D59"/>
<path d="M143.792 38.9449H143.731C143.473 38.9449 143.276 38.8328 143.14 38.6086C143.031 38.4319 142.977 38.2654 142.977 38.1092C142.977 37.9801 143.018 37.8577 143.099 37.7422C143.337 37.4501 143.619 37.2122 143.945 37.0288C144.068 36.9676 144.18 36.9371 144.282 36.9371C144.594 36.9371 144.757 37.1817 144.771 37.6709C144.764 37.8136 144.703 37.9801 144.587 38.1703C144.479 38.3606 144.35 38.5304 144.2 38.6799C144.051 38.8294 143.915 38.9177 143.792 38.9449ZM143.986 45.8857L143.905 45.8755C143.633 45.8348 143.466 45.6615 143.405 45.3557C143.371 45.0839 143.354 44.8223 143.354 44.5709C143.354 44.3739 143.364 44.1802 143.385 43.99C143.398 43.8609 143.405 43.7386 143.405 43.6231C143.378 43.3513 143.358 43.0829 143.344 42.8179C143.324 42.1316 143.218 41.4725 143.028 40.8406C142.974 40.7047 142.947 40.5654 142.947 40.4228C142.947 40.3752 142.95 40.2971 142.957 40.1883C142.97 40.0728 143.065 39.9437 143.242 39.801C143.419 39.6855 143.578 39.6278 143.721 39.6278C143.966 39.6278 144.159 39.801 144.302 40.1476C144.465 40.6232 144.564 41.109 144.598 41.605C144.625 42.0127 144.638 42.4238 144.638 42.8383V43.6435C144.638 44.2482 144.533 44.8393 144.322 45.4169L144.282 45.5494C144.255 45.6513 144.221 45.7328 144.18 45.794C144.139 45.8551 144.074 45.8857 143.986 45.8857Z" fill="#0D5D59"/>
<path d="M149.22 44.9379L149.118 44.9277C148.771 44.8189 148.598 44.4894 148.598 43.939C148.598 43.7012 148.615 43.3513 148.649 42.8892L148.659 42.5631C148.659 42.1826 148.622 41.8123 148.547 41.4522C148.479 41.0852 148.439 40.7217 148.425 40.3616C148.432 39.7773 148.639 39.4545 149.047 39.3934L149.149 39.3832C149.495 39.3832 149.696 39.6312 149.75 40.1272C149.77 40.4397 149.845 40.596 149.974 40.596C150.062 40.596 150.178 40.5349 150.321 40.4126C150.83 39.9573 151.258 39.7297 151.605 39.7297C151.666 39.7297 151.805 39.7569 152.023 39.8112C152.24 39.8656 152.543 40.2631 152.93 41.0037C153.358 41.7579 153.572 42.468 153.572 43.1339C153.572 43.5347 153.538 43.8439 153.47 44.0613C153.416 44.2244 153.3 44.3195 153.123 44.3467C152.723 44.3467 152.485 44.0885 152.41 43.5721C152.315 43.0625 152.145 42.5971 151.9 42.1758L151.86 42.1045C151.703 41.7511 151.537 41.5745 151.36 41.5745C151.197 41.5745 151.027 41.7239 150.851 42.0229C150.463 42.6616 150.151 43.3513 149.913 44.0919L149.872 44.1836C149.702 44.6864 149.485 44.9379 149.22 44.9379Z" fill="#0D5D59"/>
<path d="M159.415 49.0758C159.239 49.0758 159.052 49.0589 158.855 49.0249C158.393 48.9298 158.036 48.6851 157.784 48.2911C157.567 47.9377 157.458 47.5368 157.458 47.0884V46.9355C157.526 46.1609 157.764 45.5188 158.172 45.0092C158.579 44.5064 159.096 44.0783 159.721 43.725L159.823 43.674C159.979 43.5857 160.078 43.5076 160.118 43.4396C160.2 43.2833 160.241 43.1339 160.241 42.9912C160.241 42.9368 160.224 42.8824 160.19 42.8281C160.156 42.7669 160.118 42.7364 160.078 42.7364C160.071 42.7364 160.047 42.7432 160.006 42.7567C159.972 42.7635 159.925 42.7873 159.864 42.8281C159.809 42.8621 159.762 42.8892 159.721 42.9096C159.211 43.1135 158.685 43.2528 158.141 43.3275C158.06 43.3411 157.985 43.3479 157.917 43.3479C157.625 43.3479 157.394 43.2154 157.224 42.9504C157.115 42.7533 157.061 42.5665 157.061 42.3898C157.061 42.2064 157.115 42.0331 157.224 41.87C158.372 40.4092 159.741 39.6651 161.331 39.638C161.637 39.6448 161.824 39.7467 161.892 39.9437C161.953 40.1136 161.984 40.3072 161.984 40.5247V40.647L162.014 41.0037C162.014 41.1192 161.96 41.2925 161.851 41.5235C161.763 41.6934 161.705 41.8734 161.678 42.0637C161.664 42.1384 161.634 42.2166 161.586 42.2981C161.545 42.3796 161.525 42.451 161.525 42.5121C161.525 42.5665 161.545 42.6175 161.586 42.665C161.634 42.7058 161.681 42.7262 161.729 42.7262C161.79 42.7262 161.871 42.6956 161.973 42.6344C162.041 42.6005 162.106 42.5733 162.167 42.5529L162.514 42.4612C162.847 42.3796 163.03 42.3389 163.064 42.3389C163.179 42.3389 163.281 42.3898 163.37 42.4918C163.404 42.5461 163.421 42.5937 163.421 42.6344C163.421 42.648 163.414 42.6718 163.4 42.7058C163.394 42.7398 163.373 42.7771 163.339 42.8179C163.312 42.8587 163.292 42.8994 163.278 42.9402C163.183 43.1305 163.054 43.2765 162.891 43.3785C162.734 43.4736 162.568 43.5551 162.391 43.6231C162.255 43.6774 162.126 43.7352 162.004 43.7963C161.766 43.9322 161.61 44.0885 161.535 44.2652C161.488 44.3875 161.464 44.5268 161.464 44.6831C161.464 44.8122 161.484 45.0636 161.525 45.4373C161.586 45.8314 161.617 46.2289 161.617 46.6297C161.617 47.7033 161.243 48.4337 160.496 48.821C160.176 48.9909 159.816 49.0758 159.415 49.0758ZM158.824 41.7987C158.906 41.7987 159.041 41.7647 159.232 41.6968C159.429 41.622 159.626 41.5337 159.823 41.4318C160.156 41.2619 160.322 41.1464 160.322 41.0852C160.322 41.0445 160.278 41.0241 160.19 41.0241C160.088 41.0241 159.966 41.0581 159.823 41.126C159.68 41.194 159.531 41.2823 159.374 41.391C159.218 41.4929 159.089 41.5847 158.987 41.6662L158.824 41.7987ZM159.272 47.8222L159.385 47.812C159.786 47.7645 160.061 47.632 160.21 47.4145C160.36 47.2039 160.434 46.8811 160.434 46.4463V46.3342L160.292 45.2028C160.278 45.0058 160.227 44.9073 160.139 44.9073C160.091 44.9073 160.03 44.9311 159.955 44.9786C159.188 45.4543 158.695 46.1269 158.478 46.9967L158.467 47.119C158.467 47.3024 158.545 47.4655 158.702 47.6082C158.865 47.7509 159.055 47.8222 159.272 47.8222Z" fill="#0D5D59"/>
</svg>
