<svg width="2006" height="601" viewBox="0 0 2006 601" fill="none" xmlns="http://www.w3.org/2000/svg">
<path d="M783.265 167.414V209.13H659.496V262.109H762.637C788.904 263.361 802.656 277.127 803.894 303.408V354.927C802.656 381.625 788.766 395.739 762.225 397.269H618.239V355.553H762.637V303.825H659.496C633.091 301.878 619.339 287.903 618.239 261.901V208.921C619.339 182.501 633.091 168.666 659.496 167.414H783.265Z" fill="#0D5D59"/>
<path d="M1031.8 292.979V209.13H928.654V292.979H1031.8ZM928.654 334.695V397.269H887.397V167.414H1031.38C1057.92 168.666 1071.81 182.71 1073.05 209.547V292.562C1071.81 318.982 1058.06 333.026 1031.8 334.695L1073.46 397.269H1028.08L986.413 334.695H928.654Z" fill="#0D5D59"/>
<path d="M1156.56 168.248H1197.81V397.269H1156.56V168.248Z" fill="#0D5D59"/>
<path d="M1281.32 167.831H1322.57V272.121H1425.71V167.831H1466.97V272.538C1466.01 298.819 1452.19 312.585 1425.51 313.837H1394.77V397.269H1353.72V313.837H1322.98C1296.03 312.585 1282.14 298.75 1281.32 272.33V167.831Z" fill="#0D5D59"/>
<path d="M1694.87 355.553V209.13H1591.73V355.553H1694.87ZM1550.47 208.921C1551.57 182.223 1565.33 168.387 1591.73 167.414H1694.67C1720.8 168.387 1734.62 182.223 1736.13 208.921V355.553C1735.44 382.529 1721.69 396.434 1694.87 397.269H1591.73C1564.78 396.434 1551.02 382.529 1550.47 355.553V208.921Z" fill="#0D5D59"/>
<path d="M1819.63 209.339C1820.59 182.362 1834.35 168.387 1860.89 167.414H1964.44C1990.98 168.387 2004.6 182.362 2005.29 209.339V229.988H1964.03V209.13H1860.89V355.553H1964.03V303.825H1912.87V262.109H2005.29V355.553C2003.91 381.834 1990.3 395.739 1964.44 397.269H1860.89C1834.62 395.878 1820.87 382.042 1819.63 355.761V209.339Z" fill="#0D5D59"/>
<path d="M506.568 327.999C469.74 466.972 328.466 549.444 191.023 512.207C53.5799 474.969 -27.9849 332.122 8.84287 193.149C45.6706 54.1763 186.945 -28.2964 324.388 8.9413C461.831 46.179 543.396 189.026 506.568 327.999Z" fill="#0D5D59"/>
<path fill-rule="evenodd" clip-rule="evenodd" d="M301.515 279.599C315.878 260.915 325.905 237.89 331.594 210.524L374.017 302.484C346.95 353.833 304.346 404.278 246.204 453.819L176.811 424.56C208.223 402.756 241.398 367.51 276.336 318.822L210 304.986C193.379 329.538 170.448 353.116 141.207 375.719L73.0474 348.158C100.971 329.214 123.902 307.916 141.839 284.263C106.123 271.33 83.0257 253.509 72.5491 230.799C62.3193 207.973 61.6896 186.088 70.66 165.145C79.8772 144.085 94.4817 128.841 114.474 119.412C134.712 109.866 157.516 109.138 182.885 117.228C208.139 125.068 228.381 142.564 243.612 169.717C258.843 196.869 256.279 228.768 235.92 265.414L301.515 279.599ZM144.54 224.648C149.605 235.629 157.559 243.424 168.401 248.034C180.365 229.021 187.369 210.981 189.412 193.912C191.702 176.728 188.092 165.972 178.583 161.645C169.321 157.202 160.065 163.846 150.816 181.578C141.451 199.061 139.359 213.418 144.54 224.648Z" fill="white"/>
<path d="M277.965 165.322L348.731 131.945L450.746 353.08L379.98 386.457L277.965 165.322ZM240.869 84.9087L311.635 51.5318L339.457 111.842L268.691 145.218L240.869 84.9087Z" fill="white"/>
<path d="M1071.02 549.471L1065.16 549.222C1064.66 549.222 1064.08 549.263 1063.42 549.347C1062.75 549.43 1062 549.471 1061.17 549.471C1058.76 549.471 1056.35 548.973 1053.95 547.976C1047.22 544.403 1042.77 539.252 1040.61 532.522C1039.7 529.615 1039.24 526.582 1039.24 523.425C1039.24 519.105 1040.07 514.452 1041.73 509.467C1047.96 490.608 1058.18 476.692 1072.39 467.719L1073.01 467.345C1075.34 465.766 1077.42 464.977 1079.24 464.977C1080.91 464.977 1082.36 466.431 1083.61 469.339C1084.52 471.582 1084.98 473.742 1084.98 475.819C1084.98 479.641 1083.36 483.006 1080.12 485.914C1075.55 489.486 1071.31 493.516 1067.4 498.002C1063.58 502.405 1060.34 507.64 1057.68 513.705C1056.27 516.695 1055.57 519.188 1055.57 521.182C1055.57 525.087 1058.1 527.33 1063.17 527.911C1067.16 528.576 1071.1 528.908 1075.01 528.908C1079.24 528.908 1083.44 528.535 1087.59 527.787C1092.74 526.79 1097.94 526.001 1103.17 525.419C1103.92 525.253 1104.71 524.879 1105.54 524.297C1106.37 523.633 1107.2 523.3 1108.03 523.3C1108.78 523.3 1109.44 523.965 1110.03 525.294C1110.19 525.793 1110.27 526.291 1110.27 526.79C1110.27 527.371 1110.11 528.036 1109.78 528.784C1109.44 529.448 1108.95 530.238 1108.28 531.152C1107.62 531.982 1107.08 532.896 1106.66 533.893C1105.75 535.97 1104.58 537.466 1103.17 538.38C1101.84 539.211 1100.43 539.875 1098.93 540.374C1097.52 540.789 1096.19 541.371 1094.95 542.118C1092.62 543.282 1090.29 543.863 1087.97 543.863C1086.64 543.863 1085.39 543.988 1084.23 544.237C1083.07 544.486 1081.99 545.068 1080.99 545.982C1078.91 547.81 1076.83 548.89 1074.76 549.222C1073.59 549.388 1072.35 549.471 1071.02 549.471Z" fill="#0D5D59"/>
<path d="M1174.04 533.146C1176.04 532.979 1178.2 532.107 1180.52 530.529C1182.93 528.867 1184.97 526.998 1186.63 524.921C1188.38 522.76 1189.29 520.808 1189.37 519.063L1188.75 514.328C1188.25 510.672 1187.5 507.183 1186.51 503.859C1186.51 503.444 1186.13 502.447 1185.38 500.868C1184.72 499.705 1183.81 499.124 1182.64 499.124C1181.73 499.124 1180.65 499.581 1179.4 500.495C1175.91 503.07 1172.88 507.058 1170.31 512.458C1168.31 516.779 1167.31 520.683 1167.31 524.173C1167.31 530.155 1169.56 533.146 1174.04 533.146ZM1174.04 549.471H1173.3C1169.39 549.471 1165.61 548.35 1161.96 546.106C1158.38 543.78 1155.97 540.664 1154.73 536.76C1152.9 530.529 1151.99 524.754 1151.99 519.437C1151.99 515.283 1152.86 510.215 1154.6 504.233C1156.43 498.251 1162 491.439 1171.3 483.795C1174.21 481.386 1177.08 480.181 1179.9 480.181C1182.81 480.181 1185.63 481.427 1188.38 483.92C1198.35 494.139 1203.66 504.939 1204.33 516.322C1203.91 525.211 1200.71 532.772 1194.73 539.003C1188.83 545.234 1181.94 548.723 1174.04 549.471Z" fill="#0D5D59"/>
<path d="M1259.36 549.471L1258.11 549.347C1253.88 548.017 1251.76 543.988 1251.76 537.258C1251.76 534.35 1251.96 530.072 1252.38 524.422L1252.5 520.434C1252.5 515.782 1252.05 511.254 1251.13 506.85C1250.3 502.364 1249.8 497.919 1249.64 493.516C1249.72 486.371 1252.26 482.424 1257.24 481.677L1258.49 481.552C1262.72 481.552 1265.17 484.584 1265.84 490.649C1266.09 494.471 1267 496.382 1268.58 496.382C1269.66 496.382 1271.07 495.634 1272.82 494.139C1279.05 488.572 1284.28 485.789 1288.52 485.789C1289.27 485.789 1290.97 486.121 1293.63 486.786C1296.29 487.451 1299.99 492.311 1304.72 501.367C1309.96 510.589 1312.57 519.271 1312.57 527.413C1312.57 532.315 1312.16 536.095 1311.33 538.754C1310.66 540.748 1309.25 541.911 1307.09 542.243C1302.19 542.243 1299.28 539.086 1298.37 532.772C1297.2 526.541 1295.13 520.85 1292.13 515.698L1291.64 514.826C1289.73 510.506 1287.69 508.346 1285.53 508.346C1283.54 508.346 1281.46 510.174 1279.3 513.829C1274.56 521.639 1270.74 530.072 1267.83 539.127L1267.33 540.249C1265.26 546.397 1262.6 549.471 1259.36 549.471Z" fill="#0D5D59"/>
<path d="M1369.07 549.471H1367.82C1364.66 549.471 1361.75 548.64 1359.1 546.979C1356.44 544.902 1355.11 542.492 1355.11 539.751C1355.11 538.172 1355.61 537.258 1356.6 537.009C1357.68 536.677 1358.76 536.51 1359.84 536.51H1361.71C1368.19 535.513 1374.55 534.101 1380.78 532.273L1387.76 530.404C1387.51 529.656 1387.38 528.95 1387.38 528.285L1383.27 527.288C1380.12 526.707 1377.04 525.959 1374.05 525.045C1366.32 522.137 1362.46 517.609 1362.46 511.461C1362.46 508.969 1363.13 506.144 1364.45 502.987C1367.03 497.836 1371.23 493.516 1377.04 490.026C1382.94 486.537 1388.8 484.792 1394.61 484.792C1398.52 484.792 1401.09 486.412 1402.34 489.652C1402.67 490.816 1402.84 491.896 1402.84 492.893C1402.84 495.8 1401.43 498.168 1398.6 499.996C1393.2 503.153 1387.51 506.227 1381.53 509.218C1384.77 511.96 1388.26 513.788 1392 514.701C1394.49 515.449 1396.81 516.488 1398.97 517.817C1401.97 519.562 1404.38 521.473 1406.2 523.55C1407.7 525.377 1408.45 527.745 1408.45 530.653L1408.32 532.398C1407.82 535.97 1406.54 538.712 1404.46 540.623C1402.38 542.451 1399.68 543.863 1396.36 544.86C1387.38 547.602 1378.29 549.139 1369.07 549.471Z" fill="#0D5D59"/>
<path d="M1474.5 549.347C1469.84 549.347 1466.02 547.145 1463.03 542.742C1460.54 539.086 1458.75 535.223 1457.67 531.152C1456.59 527.081 1455.76 522.927 1455.18 518.689C1454.43 514.369 1453.52 510.09 1452.44 505.853C1451.52 503.444 1451.07 501.035 1451.07 498.625C1451.15 497.961 1451.19 497.254 1451.19 496.507V495.385C1451.19 493.89 1451.48 492.394 1452.06 490.899C1452.81 489.071 1455.14 488.157 1459.04 488.157C1461.29 488.157 1463.2 488.614 1464.78 489.528C1466.35 490.442 1467.27 492.726 1467.52 496.382C1468.1 505.189 1469.26 513.912 1471.01 522.553L1471.26 524.048C1472.09 529.532 1474.08 532.273 1477.24 532.273C1479.07 532.273 1481.27 531.401 1483.84 529.656C1497.3 521.431 1504.16 509.426 1504.41 493.64V491.771C1504.41 489.528 1504.7 487.534 1505.28 485.789C1505.86 483.961 1507.69 482.964 1510.76 482.798C1513.92 482.881 1515.95 484.003 1516.87 486.163C1517.62 487.908 1517.99 489.943 1517.99 492.269V494.388C1517.99 494.887 1518.03 495.385 1518.11 495.884C1518.2 496.299 1518.24 496.673 1518.24 497.005C1518.24 508.304 1514.38 519.022 1506.65 529.158C1499.01 539.211 1489.7 545.774 1478.73 548.848C1477.24 549.18 1475.83 549.347 1474.5 549.347Z" fill="#0D5D59"/>
<path d="M1576.42 549.471C1575.01 549.471 1573.8 548.848 1572.81 547.602C1571.89 546.272 1571.1 544.528 1570.44 542.368C1567.86 535.223 1566.33 527.87 1565.83 520.31L1565.33 516.446C1564.25 506.643 1563.38 496.839 1562.71 487.035C1561.97 478.976 1561.59 474.282 1561.59 472.953C1561.59 464.894 1564.5 460.865 1570.32 460.865C1573.06 460.865 1575.09 461.737 1576.42 463.482C1577.83 465.143 1578.62 467.303 1578.79 469.962C1578.96 473.036 1579.04 475.985 1579.04 478.81L1578.91 489.652C1579.41 495.8 1579.7 501.782 1579.79 507.598C1579.87 517.235 1580.74 526.624 1582.4 535.763C1582.49 536.51 1582.53 537.757 1582.53 539.501L1582.65 541.62C1582.65 542.949 1582.4 544.403 1581.9 545.982C1581.49 547.477 1580.2 548.557 1578.04 549.222C1577.46 549.388 1576.92 549.471 1576.42 549.471Z" fill="#0D5D59"/>
<path d="M1683.03 549.471C1681.79 549.471 1680.54 549.305 1679.29 548.973L1675.18 549.097C1666.96 549.097 1660.43 546.937 1655.62 542.617C1650.46 537.964 1647.89 531.567 1647.89 523.425V520.683C1647.89 517.443 1647.02 515.823 1645.27 515.823L1643.9 516.072C1643.73 516.072 1642.28 516.529 1639.54 517.443L1638.54 517.817C1636.71 518.648 1634.93 519.063 1633.18 519.063C1631.6 519.063 1630.07 518.149 1628.57 516.322C1627.16 514.411 1626.45 512.541 1626.45 510.714C1626.45 508.637 1627.08 506.144 1628.32 503.236C1628.99 501.741 1629.86 500.827 1630.94 500.495C1632.1 500.079 1633.35 499.871 1634.68 499.871L1636.55 499.622C1640.54 499.124 1643.36 498.584 1645.02 498.002C1646.77 497.337 1647.81 496.133 1648.14 494.388C1648.55 492.643 1648.76 489.819 1648.76 485.914C1648.76 485.083 1648.72 484.294 1648.64 483.546C1648.55 482.715 1648.51 481.967 1648.51 481.303C1648.51 478.976 1648.89 476.65 1649.63 474.324C1650.38 471.998 1652.79 470.793 1656.86 470.71C1661.51 470.959 1664.21 472.704 1664.96 475.944C1665.38 477.689 1665.58 479.558 1665.58 481.552C1665.58 483.13 1665.46 484.751 1665.21 486.412L1665.09 489.029C1665.09 494.18 1667.45 496.756 1672.19 496.756C1673.02 496.756 1673.93 496.673 1674.93 496.507C1676.68 496.34 1678.38 496.257 1680.04 496.257C1684.03 496.257 1687.98 496.673 1691.88 497.504C1693.21 497.67 1694.5 497.836 1695.74 498.002C1697.07 498.168 1698.28 498.501 1699.36 498.999C1700.44 499.498 1700.98 500.702 1700.98 502.613C1700.98 505.022 1699.73 507.058 1697.24 508.72C1694.91 509.966 1692.59 510.714 1690.26 510.963C1688.68 511.046 1687.06 511.087 1685.4 511.087L1680.17 510.963C1677.34 510.963 1674.56 511.337 1671.82 512.084C1670.82 512.334 1669.74 512.458 1668.58 512.458C1667.08 512.458 1665.71 512.749 1664.46 513.331C1663.22 513.912 1662.59 515.948 1662.59 519.437C1662.59 521.68 1662.97 523.924 1663.72 526.167C1664.46 528.41 1666.5 530.279 1669.82 531.775C1675.31 533.852 1680.87 534.89 1686.52 534.89C1689.76 534.89 1693 534.558 1696.24 533.893C1696.82 533.81 1697.45 533.644 1698.11 533.395C1699.44 532.979 1700.77 532.772 1702.1 532.772C1702.27 532.772 1702.76 532.813 1703.59 532.896C1704.51 532.896 1705.17 534.018 1705.59 536.261L1705.71 537.383C1705.71 539.044 1705.05 540.581 1703.72 541.994C1702.39 543.406 1700.73 544.403 1698.73 544.985C1696.74 545.483 1694.83 546.106 1693 546.854C1689.01 548.599 1685.69 549.471 1683.03 549.471Z" fill="#0D5D59"/>
<path d="M1758.2 476.193H1757.45C1754.3 476.193 1751.89 474.822 1750.23 472.081C1748.9 469.921 1748.23 467.885 1748.23 465.974C1748.23 464.396 1748.73 462.9 1749.73 461.488C1752.64 457.915 1756.08 455.007 1760.07 452.764C1761.57 452.016 1762.94 451.643 1764.18 451.643C1768.01 451.643 1770 454.634 1770.17 460.615C1770.08 462.36 1769.33 464.396 1767.92 466.722C1766.59 469.048 1765.01 471.125 1763.19 472.953C1761.36 474.781 1759.7 475.861 1758.2 476.193ZM1760.57 561.061L1759.57 560.936C1756.25 560.438 1754.21 558.319 1753.47 554.581C1753.05 551.257 1752.84 548.059 1752.84 544.985C1752.84 542.575 1752.97 540.208 1753.22 537.881C1753.38 536.303 1753.47 534.807 1753.47 533.395C1753.13 530.072 1752.88 526.79 1752.72 523.55C1752.47 515.158 1751.18 507.1 1748.86 499.373C1748.19 497.711 1747.86 496.008 1747.86 494.263C1747.86 493.682 1747.9 492.726 1747.98 491.397C1748.15 489.985 1749.31 488.406 1751.47 486.661C1753.63 485.249 1755.58 484.543 1757.33 484.543C1760.32 484.543 1762.69 486.661 1764.43 490.899C1766.43 496.714 1767.63 502.655 1768.05 508.72C1768.38 513.705 1768.55 518.731 1768.55 523.799V533.644C1768.55 541.038 1767.26 548.266 1764.68 555.328L1764.18 556.948C1763.85 558.195 1763.44 559.192 1762.94 559.939C1762.44 560.687 1761.65 561.061 1760.57 561.061Z" fill="#0D5D59"/>
<path d="M1824.57 549.471L1823.32 549.347C1819.08 548.017 1816.96 543.988 1816.96 537.258C1816.96 534.35 1817.17 530.072 1817.59 524.422L1817.71 520.434C1817.71 515.782 1817.25 511.254 1816.34 506.85C1815.51 502.364 1815.01 497.919 1814.84 493.516C1814.93 486.371 1817.46 482.424 1822.45 481.677L1823.69 481.552C1827.93 481.552 1830.38 484.584 1831.05 490.649C1831.29 494.471 1832.21 496.382 1833.79 496.382C1834.87 496.382 1836.28 495.634 1838.02 494.139C1844.26 488.572 1849.49 485.789 1853.73 485.789C1854.47 485.789 1856.18 486.121 1858.84 486.786C1861.49 487.451 1865.19 492.311 1869.93 501.367C1875.16 510.589 1877.78 519.271 1877.78 527.413C1877.78 532.315 1877.36 536.095 1876.53 538.754C1875.87 540.748 1874.46 541.911 1872.3 542.243C1867.39 542.243 1864.49 539.086 1863.57 532.772C1862.41 526.541 1860.33 520.85 1857.34 515.698L1856.84 514.826C1854.93 510.506 1852.9 508.346 1850.74 508.346C1848.74 508.346 1846.66 510.174 1844.5 513.829C1839.77 521.639 1835.95 530.072 1833.04 539.127L1832.54 540.249C1830.46 546.397 1827.81 549.471 1824.57 549.471Z" fill="#0D5D59"/>
<path d="M1949.23 600.068C1947.07 600.068 1944.78 599.86 1942.37 599.445C1936.72 598.282 1932.36 595.291 1929.29 590.472C1926.63 586.152 1925.3 581.25 1925.3 575.766V573.897C1926.13 564.426 1929.04 556.575 1934.02 550.343C1939.01 544.195 1945.32 538.961 1952.97 534.641L1954.21 534.018C1956.12 532.938 1957.33 531.982 1957.83 531.152C1958.82 529.241 1959.32 527.413 1959.32 525.668C1959.32 525.004 1959.11 524.339 1958.7 523.674C1958.28 522.927 1957.83 522.553 1957.33 522.553C1957.24 522.553 1956.95 522.636 1956.45 522.802C1956.04 522.885 1955.46 523.176 1954.71 523.674C1954.05 524.09 1953.46 524.422 1952.97 524.671C1946.73 527.164 1940.3 528.867 1933.65 529.781C1932.65 529.947 1931.74 530.03 1930.91 530.03C1927.33 530.03 1924.51 528.41 1922.43 525.17C1921.1 522.76 1920.44 520.476 1920.44 518.316C1920.44 516.072 1921.1 513.954 1922.43 511.96C1936.47 494.097 1953.21 485 1972.66 484.668C1976.39 484.751 1978.68 485.997 1979.51 488.406C1980.26 490.483 1980.63 492.851 1980.63 495.51V497.005L1981.01 501.367C1981.01 502.779 1980.34 504.898 1979.01 507.723C1977.93 509.8 1977.22 512.001 1976.89 514.328C1976.73 515.242 1976.35 516.197 1975.77 517.194C1975.27 518.191 1975.02 519.063 1975.02 519.811C1975.02 520.476 1975.27 521.099 1975.77 521.68C1976.35 522.179 1976.93 522.428 1977.52 522.428C1978.26 522.428 1979.26 522.054 1980.51 521.306C1981.34 520.891 1982.13 520.559 1982.87 520.31L1987.11 519.188C1991.18 518.191 1993.43 517.692 1993.84 517.692C1995.25 517.692 1996.5 518.316 1997.58 519.562C1998 520.226 1998.2 520.808 1998.2 521.306C1998.2 521.473 1998.12 521.763 1997.95 522.179C1997.87 522.594 1997.62 523.051 1997.21 523.55C1996.87 524.048 1996.62 524.547 1996.46 525.045C1995.3 527.371 1993.72 529.158 1991.72 530.404C1989.81 531.567 1987.78 532.564 1985.62 533.395C1983.95 534.06 1982.38 534.766 1980.88 535.513C1977.97 537.175 1976.06 539.086 1975.15 541.246C1974.57 542.742 1974.28 544.445 1974.28 546.356C1974.28 547.934 1974.52 551.008 1975.02 555.578C1975.77 560.396 1976.14 565.257 1976.14 570.158C1976.14 583.285 1971.58 592.217 1962.44 596.952C1958.53 599.029 1954.13 600.068 1949.23 600.068ZM1942 511.087C1943 511.087 1944.66 510.672 1946.98 509.841C1949.39 508.927 1951.8 507.847 1954.21 506.601C1958.28 504.524 1960.32 503.112 1960.32 502.364C1960.32 501.865 1959.78 501.616 1958.7 501.616C1957.45 501.616 1955.96 502.032 1954.21 502.862C1952.47 503.693 1950.64 504.773 1948.73 506.103C1946.82 507.349 1945.24 508.47 1943.99 509.467L1942 511.087ZM1947.48 584.739L1948.85 584.615C1953.75 584.033 1957.12 582.413 1958.95 579.754C1960.77 577.179 1961.69 573.232 1961.69 567.915V566.544L1959.94 552.711C1959.78 550.302 1959.15 549.097 1958.07 549.097C1957.49 549.097 1956.75 549.388 1955.83 549.97C1946.44 555.785 1940.42 564.01 1937.76 574.645L1937.64 576.14C1937.64 578.384 1938.59 580.377 1940.5 582.122C1942.5 583.867 1944.82 584.739 1947.48 584.739Z" fill="#0D5D59"/>
</svg>
