<svg width="3175" height="753" viewBox="0 0 3175 753" fill="none" xmlns="http://www.w3.org/2000/svg">
<path d="M827.698 371.896H937.805V320.366H827.698V371.896ZM783.655 519V276.323H937.365C966.286 277.351 981.114 291.958 981.848 320.146V357.142C981.261 373.732 973.04 386.064 957.184 394.138C973.04 402.213 981.261 414.471 981.848 430.914V474.957C981.114 502.851 966.653 517.532 938.466 519H783.655ZM937.805 474.957V415.939H827.698V474.957H937.805ZM1180.04 408.893V320.366H1069.93V408.893H1180.04ZM1069.93 452.936V519H1025.89V276.323H1179.6C1207.94 277.645 1222.76 292.472 1224.08 320.807V408.452C1222.76 436.346 1208.08 451.174 1180.04 452.936L1224.53 519H1176.08L1131.59 452.936H1069.93ZM1422.28 474.957V320.366H1312.17V474.957H1422.28ZM1268.13 320.146C1269.3 291.958 1283.98 277.351 1312.17 276.323H1422.06C1449.95 277.351 1464.71 291.958 1466.32 320.146V474.957C1465.59 503.438 1450.91 518.119 1422.28 519H1312.17C1283.4 518.119 1268.71 503.438 1268.13 474.957V320.146ZM1664.51 408.012V320.807H1554.41V408.012H1664.51ZM1554.41 452.055V519H1510.36V320.807C1511.39 292.472 1526 277.791 1554.19 276.764H1664.51C1692.85 277.498 1707.53 292.252 1708.56 321.027V519H1664.51V452.055H1554.41ZM1752.6 276.323H1906.53C1934.86 277.791 1949.62 292.399 1950.79 320.146V474.957C1950.06 503.291 1935.38 517.972 1906.75 519H1752.6V276.323ZM1906.75 320.366H1796.64V474.957H1906.75V320.366ZM2148.99 408.893V320.366H2038.88V408.893H2148.99ZM2038.88 452.936V519H1994.84V276.323H2148.99C2177.47 277.498 2192.15 292.252 2193.03 320.586V409.113C2191.86 437.153 2177.17 451.761 2148.99 452.936H2038.88ZM2391.22 408.893V320.366H2281.12V408.893H2391.22ZM2281.12 452.936V519H2237.07V276.323H2390.78C2419.12 277.645 2433.94 292.472 2435.27 320.807V408.452C2433.94 436.346 2419.26 451.174 2391.22 452.936L2435.71 519H2387.26L2342.78 452.936H2281.12ZM2479.31 276.323H2666.05V320.366H2523.35V377.182H2622.01V420.344H2523.35V474.957H2666.05V519H2479.31V276.323ZM2888.03 276.323V320.366H2755.9V376.301H2866.01C2894.05 377.622 2908.73 392.156 2910.05 419.903V474.296C2908.73 502.484 2893.9 517.385 2865.57 519H2711.86V474.957H2866.01V420.344H2755.9C2727.71 418.288 2713.03 403.534 2711.86 376.081V320.146C2713.03 292.252 2727.71 277.645 2755.9 276.323H2888.03ZM3130.26 276.323V320.366H2998.14V376.301H3108.24C3136.28 377.622 3150.96 392.156 3152.29 419.903V474.296C3150.96 502.484 3136.14 517.385 3107.8 519H2954.09V474.957H3108.24V420.344H2998.14C2969.95 418.288 2955.27 403.534 2954.09 376.081V320.146C2955.27 292.252 2969.95 277.645 2998.14 276.323H3130.26Z" fill="#0D5D59"/>
<mask id="path-2-inside-1_90_79" fill="white">
<rect width="458.786" height="421.169" rx="30"/>
</mask>
<rect width="458.786" height="421.169" rx="30" stroke="#0D5D59" stroke-width="180" mask="url(#path-2-inside-1_90_79)"/>
<mask id="path-3-inside-2_90_79" fill="white">
<rect y="354.669" width="611.267" height="398.331" rx="30"/>
</mask>
<rect y="354.669" width="611.267" height="398.331" rx="30" stroke="#0D5D59" stroke-width="180" mask="url(#path-3-inside-2_90_79)"/>
</svg>
